HIERARCHY
ROOT hip
{
  OFFSET 0 0 0
  CHANNELS 6 Xposition Yposition Zposition Zrotation Yrotation Xrotation
  JOINT abdomen
  {
    OFFSET 0 20.6881 -0.73152
    CHANNELS 3 Zrotation Xrotation Yrotation
    JOINT chest
    {
      OFFSET 0 11.7043 -0.48768
      CHANNELS 3 Zrotation Xrotation Yrotation
      JOINT neck
      {
        OFFSET 0 22.1894 -2.19456
        CHANNELS 3 Zrotation Xrotation Yrotation
        JOINT head
        {
          OFFSET -0.24384 7.07133 1.2192
          CHANNELS 3 Zrotation Xrotation Yrotation
          JOINT leftEye
          {
            OFFSET 4.14528 8.04674 8.04672
            CHANNELS 3 Zrotation Xrotation Yrotation
            End Site
            {
              OFFSET 1 0 0
            }
          }
          JOINT rightEye
          {
            OFFSET -3.6576 8.04674 8.04672
            CHANNELS 3 Zrotation Xrotation Yrotation
            End Site
            {
              OFFSET 1 0 0
            }
          }
        }
      }
      JOINT rCollar
      {
        OFFSET -2.68224 19.2634 -4.8768
        CHANNELS 3 Zrotation Xrotation Yrotation
        JOINT rShldr
        {
          OFFSET -8.77824 -1.95073 1.46304
          CHANNELS 3 Zrotation Xrotation Yrotation
          JOINT rForeArm
          {
            OFFSET -28.1742 -1.7115 0.48768
            CHANNELS 3 Zrotation Xrotation Yrotation
            JOINT rHand
            {
              OFFSET -22.5879 0.773209 7.07136
              CHANNELS 3 Zrotation Xrotation Yrotation
              JOINT rThumb1
              {
                OFFSET -1.2192 -0.487915 3.41376
                CHANNELS 3 Zrotation Xrotation Yrotation
                JOINT rThumb2
                {
                  OFFSET -3.37035 -0.52449 3.41376
                  CHANNELS 3 Zrotation Xrotation Yrotation
                  End Site
                  {
                    OFFSET -1.78271 -1.18214 1.43049
                  }
                }
              }
              JOINT rIndex1
              {
                OFFSET -7.75947 0.938293 5.60832
                CHANNELS 3 Zrotation Xrotation Yrotation
                JOINT rIndex2
                {
                  OFFSET -2.54057 -0.884171 1.56538
                  CHANNELS 3 Zrotation Xrotation Yrotation
                  End Site
                  {
                    OFFSET -1.62519 -0.234802 1.16502
                  }
                }
              }
              JOINT rMid1
              {
                OFFSET -8.24714 1.18213 3.41376
                CHANNELS 3 Zrotation Xrotation Yrotation
                JOINT rMid2
                {
                  OFFSET -3.10165 -0.590103 1.0647
                  CHANNELS 3 Zrotation Xrotation Yrotation
                  End Site
                  {
                    OFFSET -2.48547 -0.328903 0.83742
                  }
                }
              }
              JOINT rRing1
              {
                OFFSET -8.82822 0.546677 1.51678
                CHANNELS 3 Zrotation Xrotation Yrotation
                JOINT rRing2
                {
                  OFFSET -2.60934 -0.819778 -0.0198488
                  CHANNELS 3 Zrotation Xrotation Yrotation
                  End Site
                  {
                    OFFSET -2.33842 -0.294052 0.168128
                  }
                }
              }
              JOINT rPinky1
              {
                OFFSET -8.27202 -0.0477905 -0.4584
                CHANNELS 3 Zrotation Xrotation Yrotation
                JOINT rPinky2
                {
                  OFFSET -1.82734 -0.647385 -0.700984
                  CHANNELS 3 Zrotation Xrotation Yrotation
                  End Site
                  {
                    OFFSET -1.69225 -0.51767 -0.607171
                  }
                }
              }
            }
          }
        }
      }
      JOINT lCollar
      {
        OFFSET 2.68224 19.2634 -4.8768
        CHANNELS 3 Zrotation Xrotation Yrotation
        JOINT lShldr
        {
          OFFSET 8.77824 -1.95073 1.46304
          CHANNELS 3 Zrotation Xrotation Yrotation
          JOINT lForeArm
          {
            OFFSET 28.1742 -1.7115 0.48768
            CHANNELS 3 Zrotation Xrotation Yrotation
            JOINT lHand
            {
              OFFSET 22.5879 0.773209 7.07136
              CHANNELS 3 Zrotation Xrotation Yrotation
              JOINT lThumb1
              {
                OFFSET 1.2192 -0.487915 3.41376
                CHANNELS 3 Zrotation Xrotation Yrotation
                JOINT lThumb2
                {
                  OFFSET 3.37035 -0.52449 3.41376
                  CHANNELS 3 Zrotation Xrotation Yrotation
                  End Site
                  {
                    OFFSET 1.78271 -1.18214 1.43049
                  }
                }
              }
              JOINT lIndex1
              {
                OFFSET 7.75947 0.938293 5.60832
                CHANNELS 3 Zrotation Xrotation Yrotation
                JOINT lIndex2
                {
                  OFFSET 2.54057 -0.884171 1.56538
                  CHANNELS 3 Zrotation Xrotation Yrotation
                  End Site
                  {
                    OFFSET 1.62519 -0.234802 1.16502
                  }
                }
              }
              JOINT lMid1
              {
                OFFSET 8.24714 1.18213 3.41376
                CHANNELS 3 Zrotation Xrotation Yrotation
                JOINT lMid2
                {
                  OFFSET 3.10165 -0.590103 1.0647
                  CHANNELS 3 Zrotation Xrotation Yrotation
                  End Site
                  {
                    OFFSET 2.48547 -0.328903 0.83742
                  }
                }
              }
              JOINT lRing1
              {
                OFFSET 8.82822 0.546677 1.51678
                CHANNELS 3 Zrotation Xrotation Yrotation
                JOINT lRing2
                {
                  OFFSET 2.60934 -0.819778 -0.0198488
                  CHANNELS 3 Zrotation Xrotation Yrotation
                  End Site
                  {
                    OFFSET 2.33842 -0.294052 0.168128
                  }
                }
              }
              JOINT lPinky1
              {
                OFFSET 8.27202 -0.0477905 -0.4584
                CHANNELS 3 Zrotation Xrotation Yrotation
                JOINT lPinky2
                {
                  OFFSET 1.82734 -0.647385 -0.700984
                  CHANNELS 3 Zrotation Xrotation Yrotation
                  End Site
                  {
                    OFFSET 1.69225 -0.51767 -0.607171
                  }
                }
              }
            }
          }
        }
      }
    }
  }
  JOINT rButtock
  {
    OFFSET -8.77824 4.35084 1.2192
    CHANNELS 3 Zrotation Xrotation Yrotation
    JOINT rThigh
    {
      OFFSET 0 -1.70687 -2.19456
      CHANNELS 3 Zrotation Xrotation Yrotation
      JOINT rShin
      {
        OFFSET 0 -36.8199 0.73152
        CHANNELS 3 Zrotation Xrotation Yrotation
        JOINT rFoot
        {
          OFFSET 0.73152 -45.1104 -5.12064
          CHANNELS 3 Zrotation Xrotation Yrotation
          End Site
          {
            OFFSET -1.1221 -3.69964 12.103
          }
        }
      }
    }
  }
  JOINT lButtock
  {
    OFFSET 8.77824 4.35084 1.2192
    CHANNELS 3 Zrotation Xrotation Yrotation
    JOINT lThigh
    {
      OFFSET 0 -1.70687 -2.19456
      CHANNELS 3 Zrotation Xrotation Yrotation
      JOINT lShin
      {
        OFFSET 0 -36.8199 0.73152
        CHANNELS 3 Zrotation Xrotation Yrotation
        JOINT lFoot
        {
          OFFSET -0.73152 -45.1104 -5.12064
          CHANNELS 3 Zrotation Xrotation Yrotation
          End Site
          {
            OFFSET 1.1221 -3.69964 12.103
          }
        }
      }
    }
  }
}
MOTION
Frames:	4
Frame Time:	0.00833333
-87.8696 70.242 107.51300000000002 -0.0 -0.0 0.0 0.0 0.0 0.0 0.0 -0.0 -0.0 -8.072185 8.718885 -71.807182 10.785093 4.96472 71.954626 -0.0 0.0 -0.0 -0.0 0.0 -0.0 -13.015985 41.250126 14.798846 0.377763 -57.831509 -12.134231 -178.80991 1.36829 144.44062 171.399873 -14.394955 144.14546 -68.482456 37.953515 35.65979 -149.303477 -35.390304 85.672487 -5.558526 8.439207 3.409378 -161.313734 4.774932 109.736044 -89.835461 60.702148 81.262754 -10.407164 36.320695 6.721452 -67.6077 -72.074511 -84.373972 -140.1763 39.860733 156.500921 -150.577948 31.033784 -146.363897 -131.471795 -19.31803 -129.856919 158.417022 -29.366393 -166.793865 109.727376 60.634816 -123.455129 -11.920468 9.265456 1.77876 14.107933 39.128828 -3.628606 78.030619 38.689342 -42.41267 -157.409533 -52.113455 -68.573468 148.886119 -12.609784 -120.244776 3.544577 39.820995 -2.802903 169.08961 -33.247392 -145.374931 168.570664 -26.84027 -142.32994 0.000142 -0.018533 0.005823 0.86288 10.261269 -1.376138 -0.098846 0.258289 -0.091255 -12.80434 44.401381 -8.72676 -180.0 75.749642 -0.0 -180.0 73.473292 -180.0 -6.751865 -5.671842 -110.293685 -59.440967 -85.37786 -156.899883 -180.0 75.749642 -0.0 -180.0 73.473292 -180.0 6.751865 -5.671842 110.293685 59.440967 -85.37786 156.899883
-87.9462 70.2268 107.514 -0.0 -0.0 0.0 0.0 0.0 0.0 0.0 -0.0 -0.0 -7.906765 12.08614 -91.106352 11.93363 8.136982 91.092829 -0.0 0.0 -0.0 -0.0 0.0 -0.0 -155.504155 -3.514523 161.838528 -171.730711 -47.005088 157.363052 -89.618878 82.945654 60.402223 159.147049 -41.624668 137.231467 -176.927678 -14.532472 89.65859 -30.865698 -31.487766 0.607233 -140.164771 2.326489 115.87806 -9.489389 45.416856 4.356654 -129.362651 47.296747 118.700074 -115.18346 61.26978 107.61674 -75.673382 -72.116249 -92.828895 17.010711 -13.08647 4.300072 -158.215737 60.369594 -150.798204 -26.171412 -39.459127 -28.731317 158.468064 -30.055529 -166.919939 -9.39386 10.554972 -20.710561 -28.896993 43.788465 31.425484 114.731538 73.270231 -94.306977 93.743665 37.963835 -53.548561 -92.024215 -50.846316 -40.49437 166.010304 -42.775948 -122.223413 64.952099 53.806043 -59.863157 8.41658 20.880424 -5.645309 -0.200279 0.566096 1.10741 0.021291 -1.725169 0.542387 165.567822 -0.655219 -171.534538 -12.252484 41.424931 -10.280249 26.312425 -38.762495 25.261084 -180.0 75.749642 -0.0 -180.0 75.749642 -0.0 -2.721753 1.041334 -25.607042 76.415663 6.9405 -6.063852 -180.0 75.749642 -0.0 -180.0 75.749642 -0.0 2.721753 1.041334 25.607042 -76.415663 6.9405 6.063852
-88.015 70.2135 107.53700000000002 -0.0 -0.0 0.0 0.0 0.0 0.0 0.0 -0.0 -0.0 -8.072185 8.718885 -71.807182 10.785093 4.96472 71.954626 -0.0 0.0 -0.0 -0.0 0.0 -0.0 -13.015985 41.250126 14.798846 0.377763 -57.831509 -12.134231 -178.80991 1.36829 144.44062 171.399873 -14.394955 144.14546 -68.482456 37.953515 35.65979 -149.303477 -35.390304 85.672487 -5.558526 8.439207 3.409378 -161.313734 4.774932 109.736044 -89.835461 60.702148 81.262754 -10.407164 36.320695 6.721452 -67.6077 -72.074511 -84.373972 -140.1763 39.860733 156.500921 -150.577948 31.033784 -146.363897 -131.471795 -19.31803 -129.856919 158.417022 -29.366393 -166.793865 109.727376 60.634816 -123.455129 -11.920468 9.265456 1.77876 14.107933 39.128828 -3.628606 78.030619 38.689342 -42.41267 -157.409533 -52.113455 -68.573468 148.886119 -12.609784 -120.244776 3.544577 39.820995 -2.802903 169.08961 -33.247392 -145.374931 168.570664 -26.84027 -142.32994 0.000142 -0.018533 0.005823 0.86288 10.261269 -1.376138 -0.098846 0.258289 -0.091255 -12.80434 44.401381 -8.72676 -180.0 75.749642 -0.0 -180.0 73.473292 -180.0 -6.751865 -5.671842 -110.293685 -59.440967 -85.37786 -156.899883 -180.0 75.749642 -0.0 -180.0 73.473292 -180.0 6.751865 -5.671842 110.293685 59.440967 -85.37786 156.899883
-88.0088 70.191 107.525 -0.0 -0.0 0.0 0.0 0.0 0.0 0.0 -0.0 -0.0 -8.072185 8.718885 -71.807182 10.785093 4.96472 71.954626 0.0 0.0 0.0 0.0 0.0 0.0 -13.015985 41.250126 14.798846 0.377763 -57.831509 -12.134231 -178.80991 1.36829 144.44062 171.399873 -14.394955 144.14546 -68.482456 37.953515 35.65979 -149.303477 -35.390304 85.672487 -5.558526 8.439207 3.409378 -161.313734 4.774932 109.736044 -89.835461 60.702148 81.262754 -10.407164 36.320695 6.721452 -67.6077 -72.074511 -84.373972 -140.1763 39.860733 156.500921 -150.577948 31.033784 -146.363897 -131.471795 -19.31803 -129.856919 158.417022 -29.366393 -166.793865 138.512402 40.80152 -147.896086 85.833623 73.697703 -73.25459 -37.629878 -61.089512 -25.237276 78.030619 38.689342 -42.41267 -28.506482 -28.884747 -19.512121 0.327682 0.529888 -0.186114 165.62873 -2.814076 -109.194627 -6.908911 -21.623998 2.809719 167.606916 -8.273398 -142.427185 145.119208 0.226597 179.199525 145.206168 1.296561 179.341548 -16.821993 58.945913 -12.650611 -16.93606 47.324459 -5.111165 -180.0 75.749642 -0.0 -180.0 75.749642 -0.0 -2.721753 1.041334 -25.607042 76.415663 6.9405 -6.063852 -180.0 75.749642 -0.0 -180.0 75.749642 -0.0 2.721753 1.041334 25.607042 -76.415663 6.9405 6.063852
